<svg xmlns="http://www.w3.org/2000/svg"  viewBox="0 0 48 48" width="50px" height="50px" baseProfile="basic"><linearGradient id="BryPiOfllte5DsqMVNNDka" x1="140.772" x2="140.772" y1="39.126" y2="9.567" gradientTransform="matrix(-1 0 0 1 164 0)" gradientUnits="userSpaceOnUse"><stop offset="0" stop-color="#ffa4f9"/><stop offset=".447" stop-color="#ff5dde"/><stop offset="1" stop-color="#ff01bb"/></linearGradient><path fill="url(#BryPiOfllte5DsqMVNNDka)" d="M11.929,5.037h25.527C36,5.037,35,6.161,35,7.545v31.877c0,1.564-1.715,2.523-3.047,1.704	l-8.905-5.475c-0.642-0.395-1.453-0.395-2.095,0l-8.905,5.475C10.715,41.945,9,40.987,9,39.422V7.966	C9,6.348,10.312,5.037,11.929,5.037z"/><path fill="#ff01bb" d="M33,18.025V5.037h5c0,0.999,0,1.747,0,2.508v10.48H33z" opacity=".1"/><path fill="#ff01bb" d="M32,18.025V5.037h5.813c-0.452,0.798-0.563,1.747-0.563,2.508v10.48H32z" opacity=".2"/><path fill="#ff01bb" d="M31,18.025V5.037h6.626C36.721,5.634,36.5,6.783,36.5,7.545v10.48H31z" opacity=".3"/><path fill="#ff01bb" d="M30,18.025V5.037h7.44c-1.357,0.396-1.69,1.747-1.69,2.508v10.48H30z" opacity=".4"/><path fill="#ff01bb" d="M29,18.025V5.037h8.253C35.443,5.232,35,6.783,35,7.545v10.48H29z" opacity=".5"/><path fill="#e800b7" d="M12,5.037h25.456C36,5.037,35,6.161,35,7.545v13.477H17c-2.757,0-5-2.241-5-4.995 c0,0-0.003-8.071,0-8.063V5.037z" opacity=".05"/><path fill="#e800b7" d="M12,5.037h25.456C36,5.037,35,6.161,35,7.545v12.977H17c-2.481,0-4.5-2.017-4.5-4.496 c0,0-0.003-8.058,0-8.051C12.5,7.667,12.269,5.037,12,5.037z" opacity=".1"/><path fill="#e800b7" d="M12,5.037h25.456C36,5.037,35,6.161,35,7.545v12.478H17c-2.205,0-4-1.794-4-3.996 c0,0-0.002-8.045,0-8.039C13,7.371,12.539,5.037,12,5.037z" opacity=".2"/><path fill="#e800b7" d="M12,5.037h25.456C36,5.037,35,6.161,35,7.545v11.978H17c-1.928,0-3.5-1.57-3.5-3.497 c0,0-0.002-8.032,0-8.028C13.5,7.074,12.808,5.037,12,5.037z" opacity=".3"/><path fill="#e800b7" d="M12,5.037h25.456C36,5.037,35,6.161,35,7.545v11.479H17c-1.652,0-3-1.347-3-2.997 c0,0-0.001-8.019,0-8.016C14,6.778,13.078,5.037,12,5.037z" opacity=".4"/><path fill="#e800b7" d="M12,5.037h25.456C36,5.037,35,6.161,35,7.545v10.979H17c-1.376,0-2.5-1.123-2.5-2.498 c0,0-0.001-8.006,0-8.004C14.5,6.481,13.347,5.037,12,5.037z" opacity=".5"/><path fill="#e800b7" d="M17,18.025c-1.1,0-2-0.899-2-1.998V8.034c0-1.849-1.383-2.997-3-2.997h25.456 C36,5.037,35,6.161,35,7.545v10.48H17z"/><linearGradient id="BryPiOfllte5DsqMVNNDkb" x1="7.452" x2="31.418" y1="20.021" y2="8.842" gradientUnits="userSpaceOnUse"><stop offset="0" stop-color="#fff" stop-opacity=".4"/><stop offset="1" stop-color="#ffbe02" stop-opacity=".4"/></linearGradient><path fill="url(#BryPiOfllte5DsqMVNNDkb)" d="M17,18h22c1.1,0,2-0.9,2-2V7.417	C41,6.082,39.918,5,38.583,5H12c1.617,0,3,1.149,3,3v8C15,17.1,15.9,18,17,18z"/><linearGradient id="BryPiOfllte5DsqMVNNDkc" x1="-67.948" x2="-59.408" y1="-315.25" y2="-304.897" gradientTransform="matrix(1 0 0 -1 90 -299)" gradientUnits="userSpaceOnUse"><stop offset="0" stop-color="#fff" stop-opacity=".2"/><stop offset="1" stop-color="#ffbe02" stop-opacity=".4"/></linearGradient><path fill="url(#BryPiOfllte5DsqMVNNDkc)" d="M39,17.5H17c-0.827,0-1.5-0.673-1.5-1.5V8	c0-1.008-0.364-1.879-0.979-2.5h24.062c1.057,0,1.917,0.86,1.917,1.917V16C40.5,16.827,39.827,17.5,39,17.5L39,17.5z M39,18	c1.1,0,2-0.9,2-2V7.417C41,6.082,39.918,5,38.583,5H12c1.617,0,3,1.149,3,3v8c0,1.1,0.9,2,2,2H39L39,18z"/></svg>